Coordinates
version=1
nRows=17
nColumns=34
inDegrees=yes

Units are S.I. units (second, meters, Newtons, ...)
If the header above contains a line with 'inDegrees', this indicates whether rotational values are in degrees (yes) or radians (no).

endheader
time	pelvis_tilt	pelvis_list	pelvis_rotation	pelvis_tx	pelvis_ty	pelvis_tz	hip_flexion_r	hip_adduction_r	hip_rotation_r	knee_angle_r	ankle_angle_r	subtalar_angle_r	mtp_angle_r	hip_flexion_l	hip_adduction_l	hip_rotation_l	knee_angle_l	ankle_angle_l	subtalar_angle_l	mtp_angle_l	lumbar_extension	lumbar_bending	lumbar_rotation	arm_flex_r	arm_add_r	arm_rot_r	elbow_flex_r	pro_sup_r	arm_flex_l	arm_add_l	arm_rot_l	elbow_flex_l	pro_sup_l
      6.75000000	    -10.91075623	      1.78842935	     -1.14402909	      0.88209592	      1.00442232	     -0.07262015	     15.01404593	     -2.38251519	     -8.56209266	     15.66342616	    -18.61634493	      8.63103833	      0.00000000	     14.35919068	     -1.22536076	    -12.72969933	     20.01933166	    -14.88723791	      7.34925931	      0.00000000	     -6.02769602	     -0.18877602	     -4.05659786	    -29.77834732	    -13.67152387	     -2.90154568	      0.00000000	    104.58899336	    -36.05615232	    -10.35491446	    -28.10710969	      1.05482008	     94.34723114
      6.76666670	    -11.39841650	      2.11319860	     -0.72301947	      0.89460304	      1.03417639	     -0.07188448	     11.46428629	     -3.44082186	    -10.21749503	      8.49105512	    -23.49326180	     10.98585897	      0.00000000	     11.60637912	     -1.40085164	    -14.66699339	     13.28948911	    -23.65241023	      8.43092544	      0.00000000	     -3.44552944	     -0.63694623	     -5.17721226	    -32.81042615	    -13.74948932	     -0.64671298	      0.00000000	    105.34688464	    -40.12557818	     -8.94554924	    -23.27373046	      8.55236885	     95.76714053
      6.78333330	    -11.70630346	      2.88146083	     -1.08046549	      0.89414728	      1.06567015	     -0.06838182	      9.25273864	     -4.81797847	    -11.05994501	      5.94831878	    -28.70868216	     10.38625163	      0.00000000	     10.49049700	     -1.26317643	    -15.81547407	      9.32695431	    -28.72227829	      8.44302027	      0.00000000	     -2.36382623	     -1.81921536	     -4.64339705	    -33.88458324	    -13.30861094	      0.30394302	      0.00000000	    105.74968927	    -40.62444873	     -8.59582454	    -21.86785177	      8.89049982	     96.14937316
      6.80000000	    -12.09629364	      3.30694769	     -0.58981042	      0.89471440	      1.09424573	     -0.06712790	      8.34472803	     -5.64986558	    -11.13416997	      6.51401869	    -32.26088250	      9.05208722	      0.00000000	     10.63604650	     -1.28386926	    -15.63084856	      7.69124221	    -32.40505884	      9.36382524	      0.00000000	     -1.67280305	     -2.56747992	     -3.60240944	    -34.25834774	    -12.15792231	      6.92558486	      0.00000000	    108.35432312	    -39.29893694	     -9.67114283	    -10.95939171	      6.50182775	     98.75757376
      6.81666670	    -12.26314701	      3.65138240	     -0.38031325	      0.89461708	      1.12816890	     -0.06677874	      7.83508923	     -6.28389346	    -11.74780702	      7.35063851	    -34.75860740	      8.59498010	      0.00000000	     11.16944899	     -1.33249493	    -15.79236378	      7.61129477	    -36.00152304	      9.53741425	      0.00000000	     -1.92701845	     -3.55496438	     -3.01150334	    -32.60726413	    -11.36565330	      7.02375923	      0.00000000	    108.34286980	    -38.53315940	     -9.60152528	    -10.60902288	      6.22281019	     98.70967878
      6.83333330	    -12.49177747	      3.78736915	     -0.38661903	      0.89779723	      1.15739214	     -0.06661358	      7.58131195	     -6.35929777	    -11.50110070	      7.65532134	    -36.76586221	      6.68953966	      0.00000000	     12.14183035	     -1.56746062	    -15.12212006	      7.95327795	    -38.71739887	      8.53997195	      0.00000000	     -2.22859776	     -4.02261488	     -1.42724956	    -30.98196896	    -10.50156618	      8.12769452	      0.00000000	    108.56762825	    -35.73474092	    -10.08607335	     -7.57688679	      2.19684702	     98.41452694
      6.85000000	    -12.63098562	      3.89017417	     -0.14474204	      0.89821383	      1.17475598	     -0.06634720	      7.07550498	     -6.24952639	    -11.41188798	      6.87714326	    -38.83431794	      5.70790000	      0.00000000	     12.72055958	     -1.56764810	    -15.54246195	      7.13905908	    -40.56844105	      7.85583755	      0.00000000	     -2.91055507	     -4.41739130	     -1.43551777	    -28.71349403	    -10.40627357	      8.40485740	      0.00000000	    108.48788849	    -34.58905233	    -10.19450264	     -6.53071684	      0.81884549	     98.44981200
      6.86666670	    -13.00105797	      3.89749922	     -0.32560802	      0.90082624	      1.19192143	     -0.06243342	      7.04522138	     -5.76211355	    -12.30897464	      6.22070325	    -40.33812497	      5.17175200	      0.00000000	     13.40257098	     -1.69026526	    -16.10731535	      6.40258593	    -40.77061378	      7.88321684	      0.00000000	     -3.12033352	     -4.64125649	     -1.12969255	    -26.40626387	    -10.34626220	      8.57282385	      0.00000000	    108.47649323	    -33.55230476	    -10.47175123	     -6.11203732	      0.00000000	     98.52064006
      6.88333330	    -13.07826761	      3.93754607	     -0.70467381	      0.90212865	      1.19745717	     -0.06276576	      7.20087654	     -5.29239504	    -12.24166518	      6.06057116	    -40.99989117	      4.19441972	      0.00000000	     13.77696642	     -1.80929292	    -15.82123202	      6.42657426	    -39.36069624	      7.98533236	      0.00000000	     -3.82422320	     -4.92748989	     -0.87563828	    -24.31463869	    -10.74135446	      8.89032361	      0.00000000	    108.49871595	    -33.17380147	    -10.66647043	     -5.21940416	      0.00000000	     98.73808015
      6.90000000	    -13.08062613	      4.13065782	     -1.25204129	      0.90829268	      1.21233387	     -0.05928459	      7.37958003	     -5.11477496	    -12.41874975	      6.07198618	    -41.51495981	      4.33653873	      0.00000000	     13.85311356	     -1.84214674	    -16.14039780	      6.47651442	    -38.91441291	      7.96503778	      0.00000000	     -3.96160659	     -5.59620690	     -1.72821900	    -22.21486275	    -11.37744849	     11.36683676	      0.00000000	    109.21031363	    -33.97406984	    -10.67247313	      2.78653289	      0.00000000	    100.59892786
      6.91666670	    -13.24462303	      3.89022146	     -1.69845980	      0.90881615	      1.22718861	     -0.05840033	      8.10909839	     -4.50467750	    -12.61005483	      5.72817395	    -41.46012167	      4.40713426	      0.00000000	     14.30889161	     -2.35349321	    -15.78614561	      6.55946905	    -38.50133018	      7.99241162	      0.00000000	     -4.03069205	     -5.43727459	     -1.03739844	    -19.66931551	    -11.85625660	     11.39557378	      0.00000000	    109.16085323	    -32.91394567	    -11.39456812	      2.92388531	      0.14588302	    100.54607354
      6.93333330	    -13.54122457	      3.67936391	     -2.12714914	      0.91078577	      1.23025217	     -0.05848077	      8.79872897	     -4.05910540	    -12.74696229	      5.06905325	    -41.32825918	      4.87957776	      0.00000000	     14.82302696	     -2.77961293	    -15.91793993	      6.48084798	    -38.58965324	      7.65756056	      0.00000000	     -3.94216063	     -5.48049648	     -1.41725243	    -16.83287082	    -12.78767935	     11.41033222	      0.00000000	    108.93943831	    -32.99664499	    -11.23858744	      3.55365560	      0.00000000	    100.46862199
      6.95000000	    -13.79033337	      3.68441826	     -2.11540794	      0.91128220	      1.22993886	     -0.05788413	      9.50387270	     -3.98741586	    -13.08544881	      4.54997085	    -41.57566691	      5.13686396	      0.00000000	     15.52875343	     -2.85747517	    -15.18703595	      6.58154811	    -38.72796263	      7.57821191	      0.00000000	     -4.40408592	     -6.09183161	     -2.99299367	    -13.57016005	    -13.71409655	     11.34060454	      0.00000000	    107.83879372	    -35.36458728	    -11.04924797	      7.95593989	      3.77243180	     99.52491438
      6.96666670	    -14.00429018	      3.86002509	     -2.45739357	      0.90965647	      1.23025756	     -0.05745838	     10.34484296	     -4.08004058	    -12.11589547	      4.43735664	    -40.32117736	      5.79899292	      0.00000000	     16.15919879	     -2.77500582	    -15.34538587	      6.39043998	    -38.82965531	      7.63231523	      0.00000000	     -4.61975668	     -6.57123422	     -2.76275593	    -12.26538658	    -14.11976602	     11.21110825	      0.00000000	    107.65951323	    -35.58946128	    -10.67974946	      8.69844684	      3.51554527	     99.33378212
      6.98333330	    -14.35735542	      3.70823924	     -2.31523272	      0.91060648	      1.23564092	     -0.05730625	     11.36578338	     -3.92837607	    -11.53550973	      4.44144207	    -38.81230899	      6.38335190	      0.00000000	     16.82088962	     -2.86220558	    -14.96530915	      6.29004580	    -38.35752503	      8.33854826	      0.00000000	     -4.81773353	     -6.55524809	     -3.29262303	    -11.12292177	    -14.36508552	     10.91553736	      0.00000000	    107.36991799	    -35.77794390	    -10.04976658	      9.66789777	      3.13601192	     99.16499558
      7.00000000	    -14.26726538	      3.70226647	     -2.34146735	      0.91244051	      1.21977885	     -0.05804538	     11.95407265	     -3.91111871	    -10.87881432	      4.57525729	    -37.27277942	      6.47765133	      0.00000000	     17.14758586	     -2.77201769	    -14.69061350	      6.51287954	    -37.78020289	      8.18976204	      0.00000000	     -5.52924943	     -6.62423576	     -3.31856678	    -11.13060674	    -14.56485170	     10.63370841	      0.00000000	    107.18804398	    -36.82731828	     -9.45231202	     10.23491710	      2.90380877	     99.10244250
      7.01666670	    -14.05432938	      3.72434284	     -2.08482060	      0.91061025	      1.20992433	     -0.05805189	     12.46987789	     -4.02590025	    -10.54154831	      4.91063490	    -35.31561536	      6.69167829	      0.00000000	     17.48711109	     -2.44075323	    -14.32061427	      6.61169130	    -38.06703579	      7.81578519	      0.00000000	     -6.38081101	     -6.62067716	     -2.98419954	    -11.35367351	    -14.08443757	     -3.23535288	      0.00000000	    100.06276741	    -38.12546870	    -10.68851447	     39.53001383	      6.01594553	     94.59902298
